<svg width="91" height="91" viewBox="0 0 91 91" fill="none" xmlns="http://www.w3.org/2000/svg">
<path d="M46.9451 2.49167C50.8846 2.90892 54.2741 4.33659 57.1589 6.92514C59.2552 8.80619 60.8384 11.041 61.7566 13.7092C62.0865 14.6681 62.6062 15.2013 63.6205 15.5691C69.9094 17.8496 74.3567 22.1881 76.9481 28.2957C80.4397 36.5251 79.8274 44.4502 74.6649 51.8891C74.6034 51.9777 74.5611 52.0797 74.5123 52.1708C74.5396 52.4891 74.8149 52.5639 75.0151 52.7034C78.0796 54.8384 79.2562 57.7428 78.5842 61.4106C78.4076 62.3742 78.2769 63.3462 78.0987 64.3095C77.4752 67.6797 75.4832 69.8595 72.2049 70.753C71.2721 71.0072 70.819 71.4611 70.4546 72.2808C67.9327 77.9546 63.9379 82.2933 58.4913 85.2791C44.6119 92.8879 26.8543 86.7983 20.6063 72.2673C20.2398 71.4149 19.7659 70.9917 18.865 70.7243C15.5085 69.7278 13.4115 67.5407 12.8377 63.9957C12.5306 62.0977 12.0053 60.2113 12.3148 58.2764C12.7365 55.6396 14.1919 53.6748 16.5166 52.3802C16.4213 51.7485 15.9965 51.3669 15.7124 50.9172C10.9176 43.3256 10.7167 35.4578 14.435 27.4377C17.1842 21.508 21.711 17.4436 27.9287 15.3397C28.6714 15.0884 28.9024 14.5677 29.1378 13.9423C31.438 7.83231 35.8392 4.15684 42.18 2.76175C43.7144 2.42417 45.2771 2.36169 46.9451 2.49167ZM67.892 51.3524C69.4502 51.8803 70.4376 51.2228 71.3741 49.9641C73.7008 46.8368 75.1235 43.3546 75.3027 39.5022C75.6162 32.7617 73.246 27.0167 68.1794 22.5103C64.6298 19.3531 60.4534 17.841 55.6491 18.2388C52.501 18.4995 49.618 19.5457 46.9539 21.1838C45.9231 21.8176 45.0315 21.8839 44.0322 21.1973C43.4659 20.8082 42.8357 20.5064 42.2169 20.2003C35.1068 16.6827 27.7792 17.7115 22.1753 23.0941C18.4712 26.6518 16.3804 31.0368 15.8113 36.146C15.1835 41.7816 16.8699 46.6804 20.5073 50.962C20.7957 51.3016 21.1097 51.5513 21.6228 51.5078C28.2068 50.9499 33.6789 48.1484 38.0696 43.2616C40.7093 40.3237 42.5047 36.8899 43.5651 33.0809C43.8331 32.1185 44.3498 31.4132 45.4294 31.3982C46.5442 31.3827 47.1269 32.0367 47.4036 33.077C47.6177 33.882 47.8778 34.6818 48.1974 35.4507C51.8501 44.2378 58.1975 49.7284 67.892 51.3524ZM40.473 84.2575C42.2564 84.6424 44.0586 84.7789 45.8837 84.7574C55.5278 84.6439 64.2828 78.4683 67.5084 69.3712C68.0315 67.8958 68.8603 67.3011 70.3688 67.2545C72.3093 67.1946 73.8558 65.8385 74.2976 63.9135C74.573 62.7135 74.7635 61.4924 74.9542 60.2748C75.3282 57.8861 73.8925 55.8676 71.543 55.365C70.208 55.0794 68.85 55.3347 67.5227 55.135C59.3748 53.9087 52.8942 49.9382 48.0911 43.244C47.1239 41.8959 46.2914 40.4604 45.4946 38.8063C45.2386 39.261 45.0716 39.5312 44.9296 39.8139C43.5631 42.5345 41.8124 44.9991 39.6433 47.1152C34.42 52.211 28.2635 55.2072 20.8209 55.2116C17.917 55.2132 15.9669 56.8661 15.9809 59.564C15.99 61.3116 16.2348 63.1329 16.9886 64.7608C17.6733 66.2393 18.9461 67.214 20.5808 67.2263C22.205 67.2385 22.9639 67.9316 23.5252 69.3822C26.5494 77.1984 32.1866 82.1157 40.473 84.2575ZM34.1558 14.4274C37.8049 14.4022 41.1955 15.4019 44.388 17.0954C45.1924 17.5221 45.8332 17.4975 46.6198 17.0766C48.9759 15.8157 51.4872 15.016 54.1382 14.5952C55.3423 14.4041 56.5769 14.574 57.7772 14.3316C57.7169 13.671 57.4219 13.2457 57.1683 12.812C53.8103 7.07014 46.1987 4.61674 40.1276 7.32329C37.2411 8.6101 35.0255 10.6392 33.5093 13.4166C33.2276 13.9327 32.9507 14.4921 34.1558 14.4274Z" fill="white"/>
<path d="M32.3763 55.2768C33.4292 55.253 34.3042 55.4304 34.9477 54.2439C35.5922 53.0554 37.2485 53.3367 38.0116 54.5695C38.6645 55.6242 40.1177 55.5866 40.7635 54.4982C42.9141 50.8737 47.7877 50.7691 50.0869 54.298C50.9742 55.6598 52.1379 55.6924 53.0803 54.3817C53.9155 53.2202 55.6 53.2147 56.2629 54.485C56.6298 55.1879 57.0604 55.2921 57.7167 55.2849C59.7172 55.2629 61.7181 55.2633 63.7187 55.2746C65.3932 55.284 66.1725 56.1536 66.0608 57.8479C65.7344 62.8024 61.5088 66.7242 56.5128 66.7093C51.582 66.6947 47.4537 62.756 47.1807 57.7882C47.1457 57.1514 47.0782 56.5448 46.6138 56.0657C46.1302 55.5669 45.5264 55.4515 44.9046 55.687C44.1274 55.9813 43.8468 56.6513 43.8311 57.437C43.7976 59.1226 43.3178 60.669 42.4779 62.1205C40.5594 65.4364 36.3695 67.3076 32.5338 66.5449C28.7364 65.7899 25.6907 62.6277 25.1111 58.8389C25.0504 58.4423 24.9494 58.0477 24.9323 57.6493C24.8673 56.1299 25.6243 55.3069 27.1418 55.2835C28.8511 55.2571 30.5611 55.2771 32.3763 55.2768ZM39.3121 60.0218C39.4307 59.7677 39.6604 59.5365 39.4791 59.217C36.0866 59.217 32.6979 59.217 29.3333 59.217C29.1744 59.739 29.4715 60.0093 29.6621 60.2997C32.0076 63.8742 36.551 63.8006 39.3121 60.0218ZM53.3298 61.8569C56.6356 63.89 61.1161 62.4946 61.6338 59.2313C58.2293 59.2313 54.8324 59.2313 51.3543 59.2313C51.7531 60.356 52.3778 61.1339 53.3298 61.8569Z" fill="white"/>
<path d="M58.8267 71.6346C56.904 74.0728 54.4104 75.5359 51.63 76.3956C44.9468 78.4619 38.7593 77.4973 33.2743 72.8714C32.9944 72.6353 32.7163 72.3845 32.4893 72.0976C31.7986 71.2248 31.8488 70.0553 32.5787 69.3658C33.2739 68.7091 34.384 68.6801 35.1603 69.3963C36.5516 70.68 38.0208 71.8389 39.8089 72.4637C45.5855 74.482 50.9096 73.8179 55.5993 69.5748C56.3471 68.8983 57.1771 68.5933 58.0909 69.135C59.0167 69.6837 59.182 70.557 58.8267 71.6346Z" fill="white"/>
</svg>
